<svg xmlns="http://www.w3.org/2000/svg" viewBox="0 0 332.45 52.69"><defs><style>.cls-1,.cls-2,.cls-3,.cls-4,.cls-5{fill:#fff;}.cls-2{opacity:0.8;}.cls-3{opacity:0.7;}.cls-4{opacity:0.6;}.cls-5{opacity:0.6;}</style></defs><g id="Layer_2" data-name="Layer 2"><g id="Layer_1-2" data-name="Layer 1"><path class="cls-1" d="M86.8,27.68H82.93l-5,14.26-.56,1.57h3.38l.95-2.85H88l1,2.85h3.39l-3-8.61ZM84.73,37.74h-2l2.17-6.47,1.78,5.29.4,1.18Z"/><path class="cls-1" d="M105.37,31.88A3.89,3.89,0,0,0,102,33.51a3.39,3.39,0,0,0-3.08-1.63,3.57,3.57,0,0,0-3.14,1.52V32.2H92.86V43.51h2.92V37.16c0-1.7.88-2.56,2.13-2.56s1.9.81,1.9,2.15v6.76h2.92V37.16c0-1.7.81-2.56,2.1-2.56s1.9.81,1.9,2.15v6.76h2.92v-7C109.65,33.72,108,31.88,105.37,31.88Z"/><path class="cls-1" d="M117.82,31.88a4.39,4.39,0,0,0-3.67,1.66V27.68h-2.92V43.51h2.92V42.18a4.39,4.39,0,0,0,3.67,1.65,5.72,5.72,0,0,0,5.52-6,6.39,6.39,0,0,0-.62-2.76A5.47,5.47,0,0,0,117.82,31.88Zm-.55,9.17a3.19,3.19,0,0,1,0-6.38,3,3,0,0,1,2.94,2,3.67,3.67,0,0,1,.21,1.22A3,3,0,0,1,117.27,41.05Z"/><polygon class="cls-1" points="124.49 42.04 124.49 43.51 127.41 43.51 127.41 32.2 124.49 34 124.49 42.04"/><path class="cls-1" d="M126.91,27.25a1.82,1.82,0,0,0-1.78,1.81,1.8,1.8,0,0,0,3.59,0A1.82,1.82,0,0,0,126.91,27.25Z"/><path class="cls-1" d="M133.09,28.69l-2.92,1.81v1.7h-2V35h2v4.7c0,3.06,1.38,4.26,5.47,3.8V40.87c-1.67.09-2.55.06-2.55-1.16V35h2.55V32.2h-2.55Z"/><polygon class="cls-1" points="136.8 43.51 139.72 43.51 139.72 32.2 136.8 34 136.8 43.51"/><path class="cls-1" d="M139.22,27.25a1.83,1.83,0,0,0-1.79,1.81,1.8,1.8,0,1,0,1.79-1.81Z"/><path class="cls-1" d="M160.3,31.88a3.85,3.85,0,0,0-3.37,1.59V32.2H154V43.51h2.92v-6.1c0-2,1.07-2.81,2.49-2.81a2.11,2.11,0,0,1,2.24,2.33v6.58h2.92V36.57C164.58,33.56,162.7,31.88,160.3,31.88Z"/><polygon class="cls-1" points="180.32 37.35 173.53 27.69 171.16 27.69 171.16 43.53 174.28 43.53 174.28 33.85 181.06 43.53 183.44 43.53 183.44 27.69 180.32 27.69 180.32 37.35"/><path class="cls-1" d="M200.48,34.16V32.22h-2.92V43.53h2.92V38.12c0-2.37,1.92-3,3.44-2.87V32A3.48,3.48,0,0,0,200.48,34.16Z"/><path class="cls-1" d="M209.25,27.69l-2.91,1.8v2.73h-2V35h2v4.71c0,3.05,1.38,4.25,5.47,3.8V40.88c-1.67.09-2.56.07-2.56-1.15V35h2.56v-2.8h-2.56Z"/><path class="cls-1" d="M219.25,31.9a3.87,3.87,0,0,0-3.37,1.58V27.69H213V43.53h2.92V37.42c0-2,1.07-2.8,2.49-2.8A2.11,2.11,0,0,1,220.61,37v6.58h2.92v-7C223.53,33.57,221.65,31.9,219.25,31.9Z"/><polygon class="cls-1" points="246.43 27.69 243.4 39.44 240.07 27.69 237.41 27.69 234.1 39.44 231.07 27.69 227.79 27.69 232.22 43.53 235.78 43.53 238.74 33.08 241.73 43.53 245.28 43.53 249.71 27.69 246.43 27.69"/><polygon class="cls-1" points="262.38 43.53 265.3 43.53 265.3 27.01 262.38 28.82 262.38 43.53"/><path class="cls-1" d="M281.55,35.43c0-.61.58-.93,1.31-.93a1.92,1.92,0,0,1,1.81,1.16l2.49-1.36a4.78,4.78,0,0,0-4.3-2.4c-2.33,0-4.3,1.29-4.3,3.6,0,4,5.84,3.08,5.84,4.73,0,.65-.64,1-1.57,1a2.14,2.14,0,0,1-2.21-1.47l-2.54,1.42a4.86,4.86,0,0,0,4.75,2.7c2.43,0,4.55-1.18,4.55-3.62C287.38,36.06,281.55,37.1,281.55,35.43Z"/><path class="cls-1" d="M190.73,31.9a6,6,0,1,0,6,6A5.91,5.91,0,0,0,190.73,31.9Zm0,9.1a3.13,3.13,0,1,1,3.07-3.13A3,3,0,0,1,190.73,41Z"/><path class="cls-1" d="M257.72,33.55a4.43,4.43,0,0,0-1.28-1.07A4.85,4.85,0,0,0,254,31.9a5.71,5.71,0,0,0-5.49,6,5.72,5.72,0,0,0,5.49,6,4.51,4.51,0,0,0,3.69-1.65v1.33h2.92V32.22h-2.92Zm-3.14,7.51a3.19,3.19,0,1,1,3.14-3.19A3,3,0,0,1,254.58,41.06Z"/><path class="cls-1" d="M278.17,37.87a5.85,5.85,0,1,0-11.69,0,5.82,5.82,0,0,0,6.2,6,5.74,5.74,0,0,0,4.93-2.42l-2.35-1.36a3.17,3.17,0,0,1-2.54,1.13,3,3,0,0,1-3.19-2.13h8.53A6.53,6.53,0,0,0,278.17,37.87Zm-8.68-1.06a2.81,2.81,0,0,1,3-2.28,2.75,2.75,0,0,1,2.81,2.28Z"/><path class="cls-1" d="M146.85,31.88a6,6,0,1,0,6,6A5.92,5.92,0,0,0,146.85,31.88Zm0,9.1a3.13,3.13,0,1,1,3.08-3.12A3,3,0,0,1,146.85,41Z"/><path class="cls-1" d="M88,13.84v.76c0,1.54-.82,2.69-2.94,2.69a3.5,3.5,0,0,1-1.9-.46,2.5,2.5,0,0,1-1-2.23V4.19H79V14.85a5.26,5.26,0,0,0,1.37,3.69,6.28,6.28,0,0,0,4.67,1.81c3.48,0,6.06-2.08,6.06-5.5V4.19H88Z"/><path class="cls-1" d="M98.15,17.45a3,3,0,0,1-3-3.08,3,3,0,0,1,3-3.1,2.79,2.79,0,0,1,2.58,1.52l2.52-1.47A5.71,5.71,0,0,0,98.18,8.4a6.08,6.08,0,0,0-1.73.24,5.76,5.76,0,0,0-2.73,1.68,6,6,0,0,0-1.52,4,6,6,0,0,0,11.09,3L100.76,16A2.82,2.82,0,0,1,98.15,17.45Z"/><path class="cls-1" d="M110.21,8.4A3.87,3.87,0,0,0,106.84,10V4.19h-2.92V20h2.92V13.92c0-2,1.07-2.8,2.49-2.8a2.11,2.11,0,0,1,2.24,2.33V20h2.92v-7C114.49,10.07,112.61,8.4,110.21,8.4Z"/><polygon class="cls-1" points="128.31 20.03 131.23 20.03 131.23 3.51 128.31 5.31 128.31 20.03"/><path class="cls-1" d="M161,3.76a1.8,1.8,0,1,0,1.81,1.81A1.83,1.83,0,0,0,161,3.76Z"/><polygon class="cls-1" points="159.51 20.03 162.43 20.03 162.43 8.72 159.51 10.52 159.51 20.03"/><path class="cls-1" d="M166.8,11.93c0-.61.58-.93,1.31-.93a1.91,1.91,0,0,1,1.81,1.16l2.49-1.36a4.77,4.77,0,0,0-4.3-2.4c-2.33,0-4.3,1.29-4.3,3.6,0,4,5.84,3.07,5.84,4.73,0,.65-.64,1-1.56,1a2.15,2.15,0,0,1-2.22-1.47l-2.54,1.42a4.87,4.87,0,0,0,4.76,2.7c2.42,0,4.54-1.18,4.54-3.62C172.63,12.56,166.8,13.6,166.8,11.93Z"/><path class="cls-1" d="M187,14.28h4.8c-.55,1.81-2.13,3-4.62,3a5,5,0,0,1-5.41-5.15A5,5,0,0,1,187,6.91a4.85,4.85,0,0,1,4.25,2.19l2.67-1.54A8,8,0,0,0,187,3.88a8.24,8.24,0,1,0,.18,16.47c4.55,0,7.78-3,7.78-7.6V11.52H187Z"/><polygon class="cls-1" points="221.95 20.03 224.87 20.03 224.87 3.51 221.95 5.32 221.95 20.03"/><path class="cls-1" d="M277.7,17.29a4.91,4.91,0,0,1-5.14-5.18,4.91,4.91,0,0,1,5.14-5.2,4.56,4.56,0,0,1,4.11,2.26l2.7-1.56a7.9,7.9,0,0,0-6.81-3.73,8,8,0,0,0-8.24,8.23,8,8,0,0,0,8.24,8.24,7.85,7.85,0,0,0,6.81-3.73l-2.7-1.57A4.55,4.55,0,0,1,277.7,17.29Z"/><path class="cls-1" d="M290.43,16.32l-2.94-7.6H284.3l4.64,11a2.75,2.75,0,0,1-3,2.17v2.72c2.87.16,4.79-1.27,6-4.53l4.12-11.31H293Z"/><path class="cls-1" d="M309.05,8.4A3.88,3.88,0,0,0,305.68,10a3.38,3.38,0,0,0-3.07-1.63,3.58,3.58,0,0,0-3.15,1.52V8.72h-2.92V20h2.92V13.67c0-1.69.88-2.55,2.13-2.55s1.9.81,1.9,2.15V20h2.92V13.67c0-1.69.81-2.55,2.1-2.55s1.9.81,1.9,2.15V20h2.92v-7C313.33,10.23,311.63,8.4,309.05,8.4Z"/><path class="cls-1" d="M317.52,10.66V8.72H314.6V20h2.92V14.62c0-2.37,1.92-3,3.44-2.87V8.49A3.49,3.49,0,0,0,317.52,10.66Z"/><path class="cls-1" d="M329.53,8.72v6.11c0,2-1.06,2.8-2.49,2.8a2.11,2.11,0,0,1-2.24-2.33V8.72h-2.92v6.94c0,3,1.88,4.69,4.28,4.69a3.85,3.85,0,0,0,3.37-1.59V20h2.92V8.72Z"/><path class="cls-1" d="M121.46,8.4a5.78,5.78,0,0,0-6,6,5.83,5.83,0,0,0,6.2,6,5.76,5.76,0,0,0,4.94-2.42l-2.36-1.36a3.14,3.14,0,0,1-2.53,1.13,3,3,0,0,1-3.19-2.13h8.53a6.53,6.53,0,0,0,.11-1.2A5.72,5.72,0,0,0,121.46,8.4Zm-3,4.91a2.83,2.83,0,0,1,3-2.29,2.74,2.74,0,0,1,2.8,2.29Z"/><path class="cls-1" d="M141.66,10.12A4.32,4.32,0,0,0,138,8.4a5.66,5.66,0,0,0-5.63,5.79A5.65,5.65,0,0,0,138,20a4.32,4.32,0,0,0,3.62-1.71v1.22a2.63,2.63,0,0,1-3,2.78,3,3,0,0,1-3-1.58l-2.49,1.42a5.75,5.75,0,0,0,5.37,2.76c3,0,5.9-1.67,5.9-5.38V8.72h-2.85Zm-3.17,7.17a3,3,0,0,1-3.16-3.1,3.17,3.17,0,0,1,6.33,0A3,3,0,0,1,138.49,17.29Z"/><path class="cls-1" d="M154.85,10.05a4.48,4.48,0,0,0-3.69-1.65,5.71,5.71,0,0,0-5.49,6,5.72,5.72,0,0,0,5.49,6,4.49,4.49,0,0,0,3.69-1.66V20h2.92V8.72h-2.92Zm-3.14,7.51a3,3,0,0,1-3.13-3.19,3.14,3.14,0,1,1,6.27,0A3,3,0,0,1,151.71,17.56Z"/><path class="cls-1" d="M201.54,8.4a6,6,0,1,0,6,6A5.91,5.91,0,0,0,201.54,8.4Zm0,9.1a3,3,0,0,1-3-3.12,3.07,3.07,0,1,1,6.13,0A3,3,0,0,1,201.54,17.5Z"/><path class="cls-1" d="M217.36,10.12a4.34,4.34,0,0,0-3.62-1.72,5.67,5.67,0,0,0-5.64,5.79,5.66,5.66,0,0,0,5.64,5.8,4.34,4.34,0,0,0,3.62-1.72v1.22c0,1.79-1.13,2.78-3,2.78a2.93,2.93,0,0,1-3-1.58l-2.49,1.42c1,1.84,2.94,2.76,5.36,2.76,3,0,5.91-1.67,5.91-5.38V8.72h-2.85Zm-3.17,7.17a3.09,3.09,0,1,1,3.17-3.1A3,3,0,0,1,214.19,17.29Z"/><path class="cls-1" d="M231.7,8.4a5.78,5.78,0,0,0-6,6,5.82,5.82,0,0,0,6.2,6,5.71,5.71,0,0,0,4.93-2.42l-2.35-1.36A3.13,3.13,0,0,1,232,17.7a3,3,0,0,1-3.19-2.13h8.53a6.4,6.4,0,0,0,.12-1.19A5.73,5.73,0,0,0,231.7,8.4Zm-3,4.91a2.81,2.81,0,0,1,3-2.28,2.74,2.74,0,0,1,2.81,2.28Z"/><path class="cls-1" d="M247.67,10.05A4.38,4.38,0,0,0,244,8.4a5.73,5.73,0,0,0-5.53,6,5.73,5.73,0,0,0,5.53,6,4.38,4.38,0,0,0,3.66-1.65V20h2.92V4.19h-2.92Zm-3.12,7.52a3,3,0,0,1-3.15-3.19,3.14,3.14,0,1,1,6.27,0A3,3,0,0,1,244.55,17.57Z"/><path class="cls-1" d="M260.62,10.05A4.41,4.41,0,0,0,257,8.4a5.73,5.73,0,0,0-5.52,6,5.72,5.72,0,0,0,5.52,6,4.41,4.41,0,0,0,3.67-1.65V20h2.91V4.19h-2.91Zm-3.13,7.52a3,3,0,0,1-3.14-3.19,3.14,3.14,0,1,1,6.27,0A3,3,0,0,1,257.49,17.57Z"/><polygon class="cls-2" points="52.22 17.11 50.59 15.32 50.58 15.32 45.1 9.33 38.54 10.45 43.58 16.94 43.58 16.95 45.02 18.8 32.97 21.71 34.88 32.35 47.16 26.15 49.72 24.86 56.28 21.55 52.22 17.11"/><polygon class="cls-2" points="21 9.52 28.33 10.86 27.9 8.49 27.02 3.77 16.87 2.05 13.92 1.55 13.92 1.55 5.99 0.2 7.7 7.1 8.76 11.34 9.76 15.37 9.76 15.37 11.97 24.26 20.03 22.39 17.58 14.03 17.58 14.03 17.29 13.04 16.77 11.25 16.02 8.7 15.99 8.61 18.95 9.15 21 9.52"/><polygon class="cls-3" points="32.53 33.54 30.46 22.33 8.78 27.61 0 37.48 23.78 32.68 25.6 52.69 35.05 47.16 33.23 37.35 32.53 33.54"/><polygon class="cls-4" points="35.53 10.97 35.53 10.96 33.05 7.73 29.68 3.34 29.68 3.34 30.53 8.1 31.12 11.36 31.18 11.71 31.18 11.71 31.58 13.95 25.04 12.76 19.73 11.79 20.25 13.58 22.65 21.79 32.57 19.49 40.63 17.62 35.53 10.97"/><polygon class="cls-5" points="66.28 16.5 64 14.14 62.47 12.56 54.69 4.51 50.32 0 42.69 1.23 38.34 1.94 32.66 2.86 36.08 7.28 42.37 6.34 46.67 5.7 54.45 14.42 56 16.16 59.4 19.97 61.52 22.35 58.49 23.96 51.78 27.52 49.24 28.86 35.55 36.12 37.29 45.84 54.52 35.75 57.02 34.28 64.13 30.12 73.91 24.39 66.28 16.5"/></g></g></svg>